<svg width="66" height="66" viewBox="0 0 66 66" fill="none" xmlns="http://www.w3.org/2000/svg">
<path d="M0 0H66V66H0V0Z" fill="#51C33F"/>
<path d="M3 3H62.8V62.8H3V3Z" fill="#59D245"/>
<path d="M11 15H26V30H11V15Z" fill="black"/>
<path d="M40 15H55V30H40V15Z" fill="black"/>
<path d="M11 15H26V30H11V15Z" fill="black"/>
<path d="M15 48C15 46.3431 16.3431 45 18 45H49C50.6569 45 52 46.3431 52 48V48C52 49.6569 50.6569 51 49 51H18C16.3431 51 15 49.6569 15 48V48Z" fill="#51C33F"/>
<path d="M37.6918 48.7888C37.3097 48.565 37.1814 48.0738 37.4053 47.6918V47.6918C37.6291 47.3097 38.1202 47.1814 38.5023 47.4052L51.8617 55.2313C52.2438 55.4551 52.372 55.9463 52.1482 56.3284V56.3284C51.9244 56.7104 51.4332 56.8387 51.0512 56.6149L37.6918 48.7888Z" fill="#FF0000"/>
<path d="M51.7852 56.7325C51.3515 56.6429 51.0726 56.2188 51.1622 55.7851V55.7851C51.2518 55.3515 51.676 55.0726 52.1096 55.1622L55.3824 55.8384C55.8161 55.928 56.095 56.3522 56.0054 56.7858V56.7858C55.9158 57.2195 55.4916 57.4984 55.0579 57.4088L51.7852 56.7325Z" fill="#FF0000"/>
<path d="M50.4369 56.5461C50.1956 56.1748 50.301 55.6782 50.6723 55.4369C51.0436 55.1956 51.5401 55.301 51.7814 55.6723L53.6024 58.4745C53.8437 58.8458 53.7383 59.3424 53.367 59.5836C52.9958 59.8249 52.4992 59.7195 52.2579 59.3482L50.4369 56.5461Z" fill="#FF0000"/>
<path d="M15 48C15 47.4477 15.4477 47 16 47H51C51.5523 47 52 47.4477 52 48V48C52 48.5523 51.5523 49 51 49H16C15.4477 49 15 48.5523 15 48V48Z" fill="#0A0A0A"/>
<path fill-rule="evenodd" clip-rule="evenodd" d="M43.0247 18.0296C43.0323 18.0842 43.0418 18.1444 43.0533 18.2115C43.0588 18.2442 43.0651 18.28 43.0719 18.3182C43.1011 18.484 43.1384 18.696 43.1588 18.9002C43.2155 19.4669 43.1841 20.0107 43.0773 20.5565C42.9713 21.0985 42.446 21.4519 41.9039 21.3459C41.3619 21.2398 41.0085 20.7145 41.1146 20.1725C41.1861 19.8066 41.2048 19.4594 41.1688 19.0992C41.1565 18.9763 41.136 18.8591 41.1087 18.7032C41.1003 18.6553 41.0913 18.6037 41.0816 18.5472C41.045 18.3318 41.002 18.0542 41.002 17.7576C41.002 17.7527 41.0018 17.744 41.0015 17.7322C40.9996 17.6492 40.9941 17.4094 41.0275 17.2061C41.0758 16.9116 41.2177 16.527 41.6003 16.24C41.7496 16.1281 41.8975 16.0766 41.9894 16.0513C42.0869 16.0245 42.1752 16.0129 42.2405 16.0071C42.3687 15.9957 42.4906 16.0003 42.5734 16.0053C42.652 16.01 42.73 16.0175 42.7824 16.0225C42.7878 16.023 42.7928 16.0235 42.7976 16.024C42.8379 16.0278 42.8556 16.0291 42.8597 16.0296H44.5854C45.1377 16.0296 45.5854 16.4773 45.5854 17.0296C45.5854 17.5818 45.1377 18.0296 44.5854 18.0296H43.0247Z" fill="white"/>
<path fill-rule="evenodd" clip-rule="evenodd" d="M48.3712 16.7319C48.2189 16.3743 47.8641 16.1235 47.4508 16.1235C46.8985 16.1235 46.4508 16.5713 46.4508 17.1235L46.4504 17.1583C46.4502 17.1754 46.4499 17.2071 46.4509 17.2426C46.4526 17.3008 46.4584 17.4537 46.5206 17.6267C46.5938 17.8306 46.7421 18.0533 46.998 18.2029C47.2268 18.3366 47.4516 18.3584 47.5917 18.3584C48.144 18.3584 48.5917 17.9107 48.5917 17.3584C48.5917 17.1212 48.5092 16.9034 48.3712 16.7319Z" fill="white"/>
<path fill-rule="evenodd" clip-rule="evenodd" d="M14.0247 18.0296C14.0323 18.0842 14.0418 18.1444 14.0533 18.2115C14.0588 18.2442 14.0651 18.28 14.0719 18.3182C14.1011 18.484 14.1384 18.696 14.1588 18.9002C14.2155 19.4669 14.1841 20.0107 14.0773 20.5565C13.9713 21.0985 13.446 21.4519 12.9039 21.3459C12.3619 21.2398 12.0085 20.7145 12.1146 20.1725C12.1861 19.8066 12.2048 19.4594 12.1688 19.0992C12.1565 18.9763 12.136 18.8591 12.1087 18.7032C12.1003 18.6553 12.0913 18.6037 12.0816 18.5472C12.045 18.3318 12.002 18.0542 12.002 17.7576C12.002 17.7527 12.0018 17.744 12.0015 17.7322C11.9996 17.6492 11.9941 17.4094 12.0275 17.2061C12.0758 16.9116 12.2177 16.527 12.6003 16.24C12.7496 16.1281 12.8975 16.0766 12.9894 16.0513C13.0869 16.0245 13.1752 16.0129 13.2405 16.0071C13.3687 15.9957 13.4906 16.0003 13.5734 16.0053C13.652 16.01 13.73 16.0175 13.7824 16.0225C13.7878 16.023 13.7928 16.0235 13.7976 16.024C13.8379 16.0278 13.8556 16.0291 13.8597 16.0296H15.5854C16.1377 16.0296 16.5854 16.4773 16.5854 17.0296C16.5854 17.5818 16.1377 18.0296 15.5854 18.0296H14.0247Z" fill="white"/>
<path fill-rule="evenodd" clip-rule="evenodd" d="M19.3712 16.7319C19.2189 16.3743 18.8641 16.1235 18.4508 16.1235C17.8985 16.1235 17.4508 16.5713 17.4508 17.1235L17.4504 17.1583C17.4502 17.1754 17.4499 17.2071 17.4509 17.2426C17.4526 17.3008 17.4584 17.4537 17.5206 17.6267C17.5938 17.8306 17.7421 18.0533 17.998 18.2029C18.2268 18.3366 18.4516 18.3584 18.5917 18.3584C19.144 18.3584 19.5917 17.9107 19.5917 17.3584C19.5917 17.1212 19.5092 16.9034 19.3712 16.7319Z" fill="white"/>
</svg>
